<svg xmlns="http://www.w3.org/2000/svg" width="98" height="65" viewBox="0 0 98 65">
  <g fill="#FFFFFF" transform="translate(0 17)">
    <path d="M36.9896224 21.3869951C37.1263817 24.6167287 39.0626055 26.7651103 42.4599944 26.7651103 44.3962182 26.7651103 46.282057 25.8985964 47.0306342 24.1655686L54.5595937 24.1655686C53.1200221 29.629619 47.8583879 32 42.3880158 32 34.4199871 32 29 27.3523346 29 19.4319679 29 12.1919221 34.98142 7 42.2008715 7 50.9750604 7 55.3585559 13.3806932 54.9770695 21.3869951L36.9896224 21.3869951zM46.9370621 17.090232C46.7931049 14.4477227 44.8568811 12.2635348 42.179278 12.2635348 39.3433219 12.2635348 37.4574831 14.2257233 36.9896224 17.090232L46.9370621 17.090232zM83.9565217 7C91.6014493 7 97 12.4210828 97 19.5250645 97 26.6290461 91.6304348 32 83.9565217 32 76.2826087 32 71 26.6290461 71 19.5250645 71 12.4210828 76.3188406 7 83.9565217 7zM83.9565217 26.0776282C87.7101449 26.0776282 88.8913043 22.4969923 88.8913043 19.5250645 88.8913043 16.5531366 87.7028986 12.9223718 83.9565217 12.9223718 80.2101449 12.9223718 79.0724638 16.5030077 79.0724638 19.5250645 79.0724638 22.5471212 80.2101449 26.0847895 83.9565217 26.0847895L83.9565217 26.0776282zM16.9928149 13.0909091L12.0494505 13.0909091 12.0494505 23.6453202C12.0494505 25.5727721 13.1775148 25.9883565 14.9234996 25.9883565 15.5773457 25.9883565 16.2886729 25.8952082 17 25.8952082L17 31.7635468C15.5629755 31.8065383 14.0828402 32 12.6242604 32 5.79839391 32 4.05240913 30.0295567 4.05240913 23.4017017L4.05240913 13.0909091 0 13.0909091 0 7.93193014 4.04522401 7.93193014 4.04522401 0 12.0494505 0 12.0494505 7.93193014 16.9928149 7.93193014 16.9928149 13.0909091zM27 5.78139115L19.0071813 5.78139115 19.0071813 0 27 0 27 5.78139115zM19 7.94941283L27 7.94941283 27 32 19.0071813 32 19 7.94941283zM70.9856358 13.0909091L66.051542 13.0909091 66.051542 23.6453202C66.051542 25.5727721 67.1791297 25.9883565 68.9243768 25.9883565 69.5779468 25.9883565 70.2889734 25.8952082 71 25.8952082L71 31.7635468C69.5635826 31.8065383 68.0840727 32 66.626109 32 59.8031263 32 58.0578792 30.0295567 58.0578792 23.4017017L58.0578792 13.0909091 54 13.0909091 54 7.93193014 58.0147866 7.93193014 58.0147866 0 66.051542 0 66.051542 7.93193014 70.9928179 7.93193014 70.9856358 13.0909091z"/>
  </g>
</svg>
